<svg width="140" height="32" viewBox="0 0 140 32" fill="none" xmlns="http://www.w3.org/2000/svg">
  <path d="M17.0863 0H5.71368C2.55816 0 0 2.65783 0 5.93629V23.6883H17.0863C20.2418 23.6883 22.8 21.0305 22.8 17.752V5.93629C22.8 2.65783 20.2418 0 17.0863 0ZM16.6516 14.4918C16.6516 16.0126 15.4638 17.2468 14 17.2468H6.05164V8.9344C6.05164 7.41361 7.23952 6.17945 8.70328 6.17945H14C15.4638 6.17945 16.6516 7.41361 16.6516 8.9344V14.4918Z" fill="#4F4EAE"/>
  <path d="M52.4 16.7171C52.4 21.5889 49.812 23.6883 43.7749 23.6883H34V0H43.5199C49.0783 0 51.4426 1.89563 51.4426 6.2935C51.4426 10.3549 48.5348 11.1653 48.5348 11.1653C48.5348 11.1653 52.4 12.1818 52.4 16.7171ZM39.2699 9.74593H42.7526C44.9559 9.74593 45.9468 8.76493 45.9468 6.566C45.9468 4.5353 44.9894 3.6562 42.7526 3.6562H39.2699V9.74593ZM46.9042 16.7171C46.9042 14.2125 45.7231 13.1296 43.0076 13.1296H39.2699V20.0321H43.0076C45.7231 20.0321 46.9042 19.0511 46.9042 16.7171Z" fill="#4F4EAE"/>
  <path d="M67.4297 23.7276L66.8399 22.3929C65.7591 23.5575 63.7849 24.1038 61.6232 24.1038C57.1346 24.1038 54.8 21.6405 54.8 15.8918V6.64929H59.6512V15.8894C59.6512 19.0716 60.9026 20.4064 62.9358 20.4064C64.9346 20.4064 66.3512 19.1747 66.3512 16.2991L66.3833 6.64929H71.2001V23.7612H67.3976L67.4297 23.7276Z" fill="#4F4EAE"/>
  <path d="M94.3999 0H99.5999V23.6883H94.3999V0Z" fill="#4F4EAE"/>
  <path d="M120 15.1688C120 21.4231 117.374 24.1039 111.2 24.1039C105.026 24.1039 102.4 21.4231 102.4 15.1688C102.4 8.91453 105.026 6.23377 111.2 6.23377C117.372 6.23136 120 8.91212 120 15.1688ZM111.198 20.3908C113.957 20.3908 115.139 18.8098 115.139 15.1664C115.139 11.4894 113.957 9.94207 111.198 9.94207C108.438 9.94207 107.256 11.4894 107.256 15.1664C107.256 18.8434 108.441 20.3908 111.198 20.3908Z" fill="#4F4EAE"/>
  <path d="M73.6001 15.0447C73.6001 8.87727 76.1118 6.23376 81.0837 6.23376C83.4889 6.23376 85.2433 6.84362 86.4129 8.1986L87.4296 6.5731H91.2001V21.8243C91.2001 27.9917 88.6971 31.5844 82.8149 31.5844C77.9726 31.5844 75.6653 29.8901 75.0805 25.9581H79.6292C79.9864 27.7212 80.8648 28.4663 82.5532 28.4663C85.2497 28.4663 86.3874 26.0601 86.3874 22.6715V22.3321C85.2497 23.3834 83.2568 23.858 81.1133 23.858C76.1459 23.8556 73.6001 21.2121 73.6001 15.0447ZM86.3601 15.0447C86.3601 11.4187 84.8884 9.89292 82.3853 9.89292C79.8823 9.89292 78.4105 11.4187 78.4105 15.0447C78.4105 18.6374 79.8823 20.1964 82.3853 20.1964C84.8884 20.1941 86.3601 18.6706 86.3601 15.0447Z" fill="#4F4EAE"/>
  <path d="M122.4 15.4602C122.4 9.2928 124.912 6.64929 129.884 6.64929C132.289 6.64929 134.043 7.25915 135.213 8.61413L136.229 6.98863H140V22.2398C140 28.4072 137.497 31.9999 131.615 31.9999C126.772 31.9999 124.465 30.3056 123.88 26.3736H128.429C128.786 28.1367 129.665 28.8818 131.353 28.8818C134.049 28.8818 135.187 26.4756 135.187 23.087V22.7477C134.049 23.7989 132.057 24.2735 129.913 24.2735C124.946 24.2711 122.4 21.6276 122.4 15.4602ZM135.16 15.4602C135.16 11.8343 133.688 10.3084 131.185 10.3084C128.682 10.3084 127.21 11.8343 127.21 15.4602C127.21 19.0529 128.682 20.612 131.185 20.612C133.688 20.6096 135.16 19.0861 135.16 15.4602Z" fill="#4F4EAE"/>
</svg>
